<svg xmlns="http://www.w3.org/2000/svg">
    <defs>
        <!-- symbols will go here -->
        <symbol id="icon-candlestick" viewBox="-5.0 -10.0 110.0 135.0">
            <path d="m77.039 24.488h-5.6094v43.879h9.1836v-43.879z"/>
            <path d="m57.652 83.672c0 0.56641 0.45703 1.0234 1.0195 1.0234 0.56641 0 1.0234-0.45703 1.0234-1.0234v-7.1406h-2.0391z"/>
            <path d="m57.652 48.98h-3.5703v26.531h9.1836v-26.531z"/>
            <path d="m59.695 40.816c0-0.5625-0.45703-1.0195-1.0234-1.0195-0.5625 0-1.0195 0.45703-1.0195 1.0195v7.1445h2.0391z"/>
            <path d="m40.305 64.285c0 0.5625 0.45703 1.0195 1.0234 1.0195 0.5625 0 1.0195-0.45703 1.0195-1.0195v-7.1406h-2.0391z"/>
            <path d="m40.305 29.594h-3.5703v26.527h9.1836v-26.527z"/>
            <path d="m42.348 21.43c0-0.56641-0.45703-1.0234-1.0195-1.0234-0.56641 0-1.0234 0.45703-1.0234 1.0234v7.1445h2.0391z"/>
            <path d="m22.961 73.469c0 0.5625 0.45703 1.0195 1.0195 1.0195s1.0195-0.45703 1.0195-1.0195v-7.1406h-2.0391z"/>
            <path d="m22.961 38.777h-3.5742v26.527h9.1836v-26.527z"/>
            <path d="m25 30.613c0-0.56641-0.45703-1.0195-1.0195-1.0195s-1.0195 0.45312-1.0195 1.0195v7.1445h2.0391z"/>
            <path d="m75 76.531c0 0.5625 0.45703 1.0195 1.0195 1.0195s1.0195-0.45703 1.0195-1.0195v-7.1445h-2.0391z"/>
            <path d="m77.039 16.328c0-0.56641-0.45703-1.0234-1.0195-1.0234s-1.0195 0.45703-1.0195 1.0234v7.1445h2.0391z"/>
        </symbol>

        <symbol id="daytrade" viewBox="-5.0 -10.0 110.0 135.0">
            <path d="m88.652 19.57c0-1.7266-1.3984-3.125-3.125-3.125h-13.59v-7.0703c0-1.7266-1.3984-3.125-3.125-3.125s-3.125 1.3984-3.125 3.125v7.0703h-31.375v-7.0703c0-1.7266-1.3984-3.125-3.125-3.125s-3.125 1.3984-3.125 3.125v7.0703h-13.59c-1.7266 0-3.125 1.3984-3.125 3.125v71.055c0 1.7266 1.3984 3.125 3.125 3.125h71.059c1.7266 0 3.125-1.3984 3.125-3.125zm-60.59 3.125v0.97266c0 1.7266 1.3984 3.125 3.125 3.125s3.125-1.3984 3.125-3.125v-0.97266h31.379v0.97266c0 1.7266 1.3984 3.125 3.125 3.125 1.7266 0 3.125-1.3984 3.125-3.125l-0.003906-0.97266h10.465v12.895h-64.805v-12.895zm-10.465 64.805v-45.66h64.809l-0.003906 45.66z"/>
            <path d="m68.742 50.949h-11.676c-1.7266 0-3.125 1.3984-3.125 3.125 0 1.7266 1.3984 3.125 3.125 3.125h4.1211l-8.832 8.8438-5.9453-5.9453c-1.2188-1.2188-3.1992-1.2188-4.418 0l-12.957 12.961c-1.2188 1.2188-1.2188 3.1992 0 4.418 0.60938 0.60938 1.4102 0.91406 2.2109 0.91406 0.80078 0 1.5977-0.30469 2.2109-0.91406l10.75-10.754 5.9492 5.9453c0.58594 0.58594 1.3789 0.91406 2.2109 0.91406 0.82812 0 1.625-0.32812 2.2109-0.91797l11.043-11.059v4.1367c0 1.7266 1.3984 3.125 3.125 3.125 1.7266 0 3.125-1.3984 3.125-3.125v-11.676c-0.003906-1.7188-1.3984-3.1172-3.1289-3.1172z"/>
        </symbol>

        <symbol id="face" viewBox="-5.0 -10.0 110.0 135.0">
            <path d="m66.734 12.539c-13.125 0-24.078 9.4102-26.504 21.836-2.2266-0.59766-4.5547-0.94531-6.9688-0.94531-14.895 0-27.012 12.121-27.012 27.016 0 14.895 12.117 27.016 27.016 27.016 13.125 0 24.078-9.4102 26.504-21.836 2.2266 0.59766 4.5547 0.94531 6.9688 0.94531 14.895 0 27.012-12.121 27.012-27.016 0-14.898-12.117-27.016-27.016-27.016zm0 47.781c-2.2773 0-4.4648-0.38281-6.5195-1.0625-0.11328-2.5664-0.57031-5.0391-1.3516-7.3711 5.9062-2.1016 12.375-1.7773 18.105 0.98047 0.4375 0.21094 0.89844 0.30859 1.3516 0.30859 1.1641 0 2.2812-0.65234 2.8203-1.7695 0.74609-1.5547 0.09375-3.4219-1.4609-4.1719-7.4375-3.5742-15.855-3.8867-23.484-0.99609-2.4648-3.9648-5.9023-7.2578-10.008-9.5039 1.3867-10.113 10.059-17.941 20.551-17.941 11.449-0.003907 20.762 9.3125 20.762 20.762 0 11.449-9.3125 20.766-20.766 20.766zm-12.707 0.125c0 11.449-9.3125 20.766-20.766 20.766-11.449 0-20.762-9.3164-20.762-20.766 0-11.449 9.3125-20.766 20.766-20.766 11.449 0 20.762 9.3164 20.762 20.766z"/>
            <path d="m58.016 29.879c-0.19531 0.24219-0.35547 0.39844-0.46875 0.50391-0.11328-0.10156-0.27344-0.26172-0.46875-0.50391-1.082-1.3398-3.0469-1.5508-4.3945-0.46484-1.3438 1.0859-1.5508 3.0547-0.46484 4.3945 1.582 1.957 3.375 2.9492 5.3242 2.9492 1.9531 0 3.7461-0.99219 5.3281-2.9492 1.0859-1.3438 0.87891-3.3125-0.46484-4.3945-1.3398-1.0859-3.3047-0.875-4.3906 0.46484z"/>
            <path d="m80.785 29.414c-1.3477-1.0859-3.3125-0.87109-4.3945 0.46484-0.19531 0.24219-0.35547 0.39844-0.46875 0.50391-0.11719-0.10156-0.27344-0.26172-0.46875-0.50391-1.082-1.3398-3.0469-1.5508-4.3945-0.46484-1.3438 1.0859-1.5508 3.0547-0.46484 4.3945 1.582 1.957 3.375 2.9492 5.3281 2.9492 1.9492 0 3.7422-0.99219 5.3242-2.9492 1.0898-1.3438 0.88281-3.3125-0.46094-4.3945z"/>
            <path d="m23.609 56.492c0.19531-0.24219 0.35156-0.40234 0.46484-0.50391 0.11719 0.10156 0.27734 0.26172 0.47266 0.50391 0.61719 0.76172 1.5195 1.1602 2.4336 1.1602 0.69141 0 1.3828-0.22656 1.9609-0.69531 1.3438-1.0859 1.5508-3.0547 0.46484-4.3945-3.1641-3.9141-7.4844-3.918-10.652 0-1.0859 1.3438-0.87891 3.3125 0.46484 4.3945 1.3398 1.0859 3.3047 0.87109 4.3906-0.46484z"/>
            <path d="m41.984 56.492c0.19531-0.24219 0.35547-0.39844 0.46875-0.50391 0.11328 0.10156 0.27344 0.26172 0.46875 0.50391 0.61719 0.76172 1.5195 1.1602 2.4336 1.1602 0.69141 0 1.3828-0.22656 1.9609-0.69531 1.3438-1.0859 1.5508-3.0547 0.46484-4.3945-3.168-3.918-7.4844-3.9141-10.652 0-1.0859 1.3438-0.87891 3.3125 0.46484 4.3945 1.3438 1.0859 3.3086 0.87109 4.3906-0.46484z"/>
            <path d="m43.5 65.48c-6.5078 3.1289-13.965 3.1289-20.473 0-1.5547-0.74609-3.4258-0.09375-4.1719 1.4648-0.74609 1.5547-0.089844 3.4219 1.4609 4.1719 4.1133 1.9766 8.5312 2.9648 12.945 2.9648 4.4141 0 8.832-0.98828 12.945-2.9648 1.5547-0.74609 2.2109-2.6172 1.4609-4.1719-0.74609-1.5586-2.6133-2.2109-4.168-1.4648z"/>
        </symbol>

        <symbol id="strategy" viewBox="-5.0 -10.0 110.0 135.0">
            <path d="m63.875 88.812v-13.562c0-1.8164 0.96875-3.5195 2.5781-4.5469 0.85547-0.54297 1.6523-1.1562 2.4492-1.7656 7.8633-6.0039 12.832-15.082 13.402-24.883 0.097656-1.7227-1.2148-3.2031-2.9375-3.3008-1.7617-0.082031-3.2031 1.2188-3.3008 2.9375-0.50781 8.7891-5.3555 16.914-12.965 21.734-3.4297 2.1836-5.4766 5.8594-5.4766 9.8203v13.562c0 1.7266 1.3984 3.125 3.125 3.125 1.7266 0.003906 3.125-1.3945 3.125-3.1211z"/>
            <path d="m29.906 69.812h-3.4062c-3.2227 0-5.8438-2.6211-5.8438-5.8438v-8.3125c0-0.97656-0.45312-1.8945-1.2305-2.4844l-5.7539-4.3867 4.1836-5.9062c1.0234-1.4336 1.6992-3.1484 2.0117-5.1055 2.1484-13.512 13.82-23.375 27.746-23.461 3.957 0.03125 7.9922 0.78906 11.562 2.3594 0.027344 0.011719 0.058594 0.007813 0.085938 0.019531 1.5586 0.63281 3.3477-0.070312 4.0312-1.6211 0.69531-1.582-0.023438-3.4258-1.6016-4.1211-4.375-1.9219-9.3672-2.9375-14.121-2.8867-16.992 0.10547-31.242 12.184-33.875 28.727-0.15625 0.97656-0.47656 1.8281-0.93359 2.4688l-5.9375 8.375c-0.97266 1.375-0.68359 3.2734 0.65625 4.293l6.9258 5.2812v6.7656c0 6.668 5.4258 12.094 12.094 12.094h0.28125v12.75c0 1.7266 1.3984 3.125 3.125 3.125s3.125-1.3984 3.125-3.125v-15.879c0-1.7266-1.3984-3.125-3.125-3.125z"/>
            <path d="m90.625 11.613h-15.816c-1.7266 0-3.125 1.3984-3.125 3.125 0 1.7266 1.3984 3.125 3.125 3.125h8.2617l-14.637 14.656-8.8398-8.8398c-0.77734-0.77734-1.8516-1.0039-2.8516-0.78906-0.57031 0.12109-1.125 0.34766-1.5703 0.78906l-17.562 17.562c-1.2188 1.2188-1.2188 3.1992 0 4.418 0.60938 0.60938 1.4102 0.91406 2.2109 0.91406 0.80078 0 1.5977-0.30469 2.2109-0.91406l15.352-15.352 8.8398 8.8398c0.58594 0.58594 1.3828 0.91406 2.2109 0.91406s1.625-0.32812 2.2109-0.91797l16.855-16.871v8.2812c0 1.7266 1.3984 3.125 3.125 3.125s3.125-1.3984 3.125-3.125v-15.816c0-1.7266-1.3984-3.125-3.125-3.125z"/>
        </symbol>

        <symbol id="up-down" viewBox="-5.0 -10.0 110.0 135.0">
            <path d="m88.414 7.1641-57.254 57.254v-39.734l10.086 10.332c1.2109 1.2383 3.1875 1.2578 4.418 0.050781 1.2344-1.207 1.2617-3.1836 0.054688-4.418l-15.449-15.824v-0.003907c-0.56641-0.57812-1.3555-0.94141-2.2344-0.94141-0.86328 0-1.6445 0.35547-2.2109 0.92578-0.007813 0.007812-0.019531 0.007812-0.027344 0.019531l-15.449 15.824c-1.207 1.2344-1.1797 3.2148 0.054688 4.4219 0.60547 0.59375 1.3945 0.88672 2.1836 0.88672 0.8125 0 1.625-0.3125 2.2383-0.94141l10.09-10.336v45.992l-17.746 17.746c-1.2188 1.2188-1.2188 3.1992 0 4.418 0.60938 0.60937 1.4062 0.91406 2.207 0.91406s1.5977-0.30469 2.2109-0.91406l57.254-57.254v39.734l-10.086-10.332c-1.207-1.2344-3.1875-1.2539-4.418-0.050781-1.2344 1.207-1.2617 3.1836-0.054688 4.418l15.449 15.828c1.1562 1.2969 3.2305 1.1055 4.4727 0l15.449-15.828c1.207-1.2344 1.1797-3.2148-0.054688-4.4219-1.2344-1.1992-3.2109-1.1797-4.418 0.054687l-10.09 10.336v-45.988l17.746-17.746c1.2188-1.2188 1.2188-3.1992 0-4.418-1.2227-1.2227-3.1992-1.2227-4.4219-0.003907z"/>
        </symbol>
        
    </defs>
</svg>
