<svg xmlns="http://www.w3.org/2000/svg" version="1.1" viewBox="-5.0 -10.0 110.0 135.0">
 <g>
  <path d="m77.039 24.488h-5.6094v43.879h9.1836v-43.879z"/>
  <path d="m57.652 83.672c0 0.56641 0.45703 1.0234 1.0195 1.0234 0.56641 0 1.0234-0.45703 1.0234-1.0234v-7.1406h-2.0391z"/>
  <path d="m57.652 48.98h-3.5703v26.531h9.1836v-26.531z"/>
  <path d="m59.695 40.816c0-0.5625-0.45703-1.0195-1.0234-1.0195-0.5625 0-1.0195 0.45703-1.0195 1.0195v7.1445h2.0391z"/>
  <path d="m40.305 64.285c0 0.5625 0.45703 1.0195 1.0234 1.0195 0.5625 0 1.0195-0.45703 1.0195-1.0195v-7.1406h-2.0391z"/>
  <path d="m40.305 29.594h-3.5703v26.527h9.1836v-26.527z"/>
  <path d="m42.348 21.43c0-0.56641-0.45703-1.0234-1.0195-1.0234-0.56641 0-1.0234 0.45703-1.0234 1.0234v7.1445h2.0391z"/>
  <path d="m22.961 73.469c0 0.5625 0.45703 1.0195 1.0195 1.0195s1.0195-0.45703 1.0195-1.0195v-7.1406h-2.0391z"/>
  <path d="m22.961 38.777h-3.5742v26.527h9.1836v-26.527z"/>
  <path d="m25 30.613c0-0.56641-0.45703-1.0195-1.0195-1.0195s-1.0195 0.45312-1.0195 1.0195v7.1445h2.0391z"/>
  <path d="m75 76.531c0 0.5625 0.45703 1.0195 1.0195 1.0195s1.0195-0.45703 1.0195-1.0195v-7.1445h-2.0391z"/>
  <path d="m77.039 16.328c0-0.56641-0.45703-1.0234-1.0195-1.0234s-1.0195 0.45703-1.0195 1.0234v7.1445h2.0391z"/>
 </g>
<text x="0.0" y="117.5" font-size="5.0" font-weight="bold" font-family="Arbeit Regular, Helvetica, Arial-Unicode, Arial, Sans-serif" fill="#000000">Created by Kise1ki</text><text x="0.0" y="122.5" font-size="5.0" font-weight="bold" font-family="Arbeit Regular, Helvetica, Arial-Unicode, Arial, Sans-serif" fill="#000000">from Noun Project</text></svg>