<svg xmlns="http://www.w3.org/2000/svg" version="1.1" viewBox="-5.0 -10.0 110.0 135.0">
 <path d="m66.734 12.539c-13.125 0-24.078 9.4102-26.504 21.836-2.2266-0.59766-4.5547-0.94531-6.9688-0.94531-14.895 0-27.012 12.121-27.012 27.016 0 14.895 12.117 27.016 27.016 27.016 13.125 0 24.078-9.4102 26.504-21.836 2.2266 0.59766 4.5547 0.94531 6.9688 0.94531 14.895 0 27.012-12.121 27.012-27.016 0-14.898-12.117-27.016-27.016-27.016zm0 47.781c-2.2773 0-4.4648-0.38281-6.5195-1.0625-0.11328-2.5664-0.57031-5.0391-1.3516-7.3711 5.9062-2.1016 12.375-1.7773 18.105 0.98047 0.4375 0.21094 0.89844 0.30859 1.3516 0.30859 1.1641 0 2.2812-0.65234 2.8203-1.7695 0.74609-1.5547 0.09375-3.4219-1.4609-4.1719-7.4375-3.5742-15.855-3.8867-23.484-0.99609-2.4648-3.9648-5.9023-7.2578-10.008-9.5039 1.3867-10.113 10.059-17.941 20.551-17.941 11.449-0.003907 20.762 9.3125 20.762 20.762 0 11.449-9.3125 20.766-20.766 20.766zm-12.707 0.125c0 11.449-9.3125 20.766-20.766 20.766-11.449 0-20.762-9.3164-20.762-20.766 0-11.449 9.3125-20.766 20.766-20.766 11.449 0 20.762 9.3164 20.762 20.766z"/>
 <path d="m58.016 29.879c-0.19531 0.24219-0.35547 0.39844-0.46875 0.50391-0.11328-0.10156-0.27344-0.26172-0.46875-0.50391-1.082-1.3398-3.0469-1.5508-4.3945-0.46484-1.3438 1.0859-1.5508 3.0547-0.46484 4.3945 1.582 1.957 3.375 2.9492 5.3242 2.9492 1.9531 0 3.7461-0.99219 5.3281-2.9492 1.0859-1.3438 0.87891-3.3125-0.46484-4.3945-1.3398-1.0859-3.3047-0.875-4.3906 0.46484z"/>
 <path d="m80.785 29.414c-1.3477-1.0859-3.3125-0.87109-4.3945 0.46484-0.19531 0.24219-0.35547 0.39844-0.46875 0.50391-0.11719-0.10156-0.27344-0.26172-0.46875-0.50391-1.082-1.3398-3.0469-1.5508-4.3945-0.46484-1.3438 1.0859-1.5508 3.0547-0.46484 4.3945 1.582 1.957 3.375 2.9492 5.3281 2.9492 1.9492 0 3.7422-0.99219 5.3242-2.9492 1.0898-1.3438 0.88281-3.3125-0.46094-4.3945z"/>
 <path d="m23.609 56.492c0.19531-0.24219 0.35156-0.40234 0.46484-0.50391 0.11719 0.10156 0.27734 0.26172 0.47266 0.50391 0.61719 0.76172 1.5195 1.1602 2.4336 1.1602 0.69141 0 1.3828-0.22656 1.9609-0.69531 1.3438-1.0859 1.5508-3.0547 0.46484-4.3945-3.1641-3.9141-7.4844-3.918-10.652 0-1.0859 1.3438-0.87891 3.3125 0.46484 4.3945 1.3398 1.0859 3.3047 0.87109 4.3906-0.46484z"/>
 <path d="m41.984 56.492c0.19531-0.24219 0.35547-0.39844 0.46875-0.50391 0.11328 0.10156 0.27344 0.26172 0.46875 0.50391 0.61719 0.76172 1.5195 1.1602 2.4336 1.1602 0.69141 0 1.3828-0.22656 1.9609-0.69531 1.3438-1.0859 1.5508-3.0547 0.46484-4.3945-3.168-3.918-7.4844-3.9141-10.652 0-1.0859 1.3438-0.87891 3.3125 0.46484 4.3945 1.3438 1.0859 3.3086 0.87109 4.3906-0.46484z"/>
 <path d="m43.5 65.48c-6.5078 3.1289-13.965 3.1289-20.473 0-1.5547-0.74609-3.4258-0.09375-4.1719 1.4648-0.74609 1.5547-0.089844 3.4219 1.4609 4.1719 4.1133 1.9766 8.5312 2.9648 12.945 2.9648 4.4141 0 8.832-0.98828 12.945-2.9648 1.5547-0.74609 2.2109-2.6172 1.4609-4.1719-0.74609-1.5586-2.6133-2.2109-4.168-1.4648z"/>
<text x="0.0" y="117.5" font-size="5.0" font-weight="bold" font-family="Arbeit Regular, Helvetica, Arial-Unicode, Arial, Sans-serif" fill="#000000">Created by Riyan Resdian</text><text x="0.0" y="122.5" font-size="5.0" font-weight="bold" font-family="Arbeit Regular, Helvetica, Arial-Unicode, Arial, Sans-serif" fill="#000000">from Noun Project</text></svg>