<svg xmlns="http://www.w3.org/2000/svg" version="1.1" viewBox="-5.0 -10.0 110.0 135.0">
 <path d="m88.652 19.57c0-1.7266-1.3984-3.125-3.125-3.125h-13.59v-7.0703c0-1.7266-1.3984-3.125-3.125-3.125s-3.125 1.3984-3.125 3.125v7.0703h-31.375v-7.0703c0-1.7266-1.3984-3.125-3.125-3.125s-3.125 1.3984-3.125 3.125v7.0703h-13.59c-1.7266 0-3.125 1.3984-3.125 3.125v71.055c0 1.7266 1.3984 3.125 3.125 3.125h71.059c1.7266 0 3.125-1.3984 3.125-3.125zm-60.59 3.125v0.97266c0 1.7266 1.3984 3.125 3.125 3.125s3.125-1.3984 3.125-3.125v-0.97266h31.379v0.97266c0 1.7266 1.3984 3.125 3.125 3.125 1.7266 0 3.125-1.3984 3.125-3.125l-0.003906-0.97266h10.465v12.895h-64.805v-12.895zm-10.465 64.805v-45.66h64.809l-0.003906 45.66z"/>
 <path d="m68.742 50.949h-11.676c-1.7266 0-3.125 1.3984-3.125 3.125 0 1.7266 1.3984 3.125 3.125 3.125h4.1211l-8.832 8.8438-5.9453-5.9453c-1.2188-1.2188-3.1992-1.2188-4.418 0l-12.957 12.961c-1.2188 1.2188-1.2188 3.1992 0 4.418 0.60938 0.60938 1.4102 0.91406 2.2109 0.91406 0.80078 0 1.5977-0.30469 2.2109-0.91406l10.75-10.754 5.9492 5.9453c0.58594 0.58594 1.3789 0.91406 2.2109 0.91406 0.82812 0 1.625-0.32812 2.2109-0.91797l11.043-11.059v4.1367c0 1.7266 1.3984 3.125 3.125 3.125 1.7266 0 3.125-1.3984 3.125-3.125v-11.676c-0.003906-1.7188-1.3984-3.1172-3.1289-3.1172z"/>
<text x="0.0" y="117.5" font-size="5.0" font-weight="bold" font-family="Arbeit Regular, Helvetica, Arial-Unicode, Arial, Sans-serif" fill="#000000">Created by Riyan Resdian</text><text x="0.0" y="122.5" font-size="5.0" font-weight="bold" font-family="Arbeit Regular, Helvetica, Arial-Unicode, Arial, Sans-serif" fill="#000000">from Noun Project</text></svg>