<svg xmlns="http://www.w3.org/2000/svg" version="1.1" viewBox="-5.0 -10.0 110.0 135.0">
 <path d="m88.414 7.1641-57.254 57.254v-39.734l10.086 10.332c1.2109 1.2383 3.1875 1.2578 4.418 0.050781 1.2344-1.207 1.2617-3.1836 0.054688-4.418l-15.449-15.824v-0.003907c-0.56641-0.57812-1.3555-0.94141-2.2344-0.94141-0.86328 0-1.6445 0.35547-2.2109 0.92578-0.007813 0.007812-0.019531 0.007812-0.027344 0.019531l-15.449 15.824c-1.207 1.2344-1.1797 3.2148 0.054688 4.4219 0.60547 0.59375 1.3945 0.88672 2.1836 0.88672 0.8125 0 1.625-0.3125 2.2383-0.94141l10.09-10.336v45.992l-17.746 17.746c-1.2188 1.2188-1.2188 3.1992 0 4.418 0.60938 0.60937 1.4062 0.91406 2.207 0.91406s1.5977-0.30469 2.2109-0.91406l57.254-57.254v39.734l-10.086-10.332c-1.207-1.2344-3.1875-1.2539-4.418-0.050781-1.2344 1.207-1.2617 3.1836-0.054688 4.418l15.449 15.828c1.1562 1.2969 3.2305 1.1055 4.4727 0l15.449-15.828c1.207-1.2344 1.1797-3.2148-0.054688-4.4219-1.2344-1.1992-3.2109-1.1797-4.418 0.054687l-10.09 10.336v-45.988l17.746-17.746c1.2188-1.2188 1.2188-3.1992 0-4.418-1.2227-1.2227-3.1992-1.2227-4.4219-0.003907z"/>
<text x="0.0" y="117.5" font-size="5.0" font-weight="bold" font-family="Arbeit Regular, Helvetica, Arial-Unicode, Arial, Sans-serif" fill="#000000">Created by Riyan Resdian</text><text x="0.0" y="122.5" font-size="5.0" font-weight="bold" font-family="Arbeit Regular, Helvetica, Arial-Unicode, Arial, Sans-serif" fill="#000000">from Noun Project</text></svg>