<svg xmlns="http://www.w3.org/2000/svg" version="1.1" viewBox="-5.0 -10.0 110.0 135.0">
 <path d="m63.875 88.812v-13.562c0-1.8164 0.96875-3.5195 2.5781-4.5469 0.85547-0.54297 1.6523-1.1562 2.4492-1.7656 7.8633-6.0039 12.832-15.082 13.402-24.883 0.097656-1.7227-1.2148-3.2031-2.9375-3.3008-1.7617-0.082031-3.2031 1.2188-3.3008 2.9375-0.50781 8.7891-5.3555 16.914-12.965 21.734-3.4297 2.1836-5.4766 5.8594-5.4766 9.8203v13.562c0 1.7266 1.3984 3.125 3.125 3.125 1.7266 0.003906 3.125-1.3945 3.125-3.1211z"/>
 <path d="m29.906 69.812h-3.4062c-3.2227 0-5.8438-2.6211-5.8438-5.8438v-8.3125c0-0.97656-0.45312-1.8945-1.2305-2.4844l-5.7539-4.3867 4.1836-5.9062c1.0234-1.4336 1.6992-3.1484 2.0117-5.1055 2.1484-13.512 13.82-23.375 27.746-23.461 3.957 0.03125 7.9922 0.78906 11.562 2.3594 0.027344 0.011719 0.058594 0.007813 0.085938 0.019531 1.5586 0.63281 3.3477-0.070312 4.0312-1.6211 0.69531-1.582-0.023438-3.4258-1.6016-4.1211-4.375-1.9219-9.3672-2.9375-14.121-2.8867-16.992 0.10547-31.242 12.184-33.875 28.727-0.15625 0.97656-0.47656 1.8281-0.93359 2.4688l-5.9375 8.375c-0.97266 1.375-0.68359 3.2734 0.65625 4.293l6.9258 5.2812v6.7656c0 6.668 5.4258 12.094 12.094 12.094h0.28125v12.75c0 1.7266 1.3984 3.125 3.125 3.125s3.125-1.3984 3.125-3.125v-15.879c0-1.7266-1.3984-3.125-3.125-3.125z"/>
 <path d="m90.625 11.613h-15.816c-1.7266 0-3.125 1.3984-3.125 3.125 0 1.7266 1.3984 3.125 3.125 3.125h8.2617l-14.637 14.656-8.8398-8.8398c-0.77734-0.77734-1.8516-1.0039-2.8516-0.78906-0.57031 0.12109-1.125 0.34766-1.5703 0.78906l-17.562 17.562c-1.2188 1.2188-1.2188 3.1992 0 4.418 0.60938 0.60938 1.4102 0.91406 2.2109 0.91406 0.80078 0 1.5977-0.30469 2.2109-0.91406l15.352-15.352 8.8398 8.8398c0.58594 0.58594 1.3828 0.91406 2.2109 0.91406s1.625-0.32812 2.2109-0.91797l16.855-16.871v8.2812c0 1.7266 1.3984 3.125 3.125 3.125s3.125-1.3984 3.125-3.125v-15.816c0-1.7266-1.3984-3.125-3.125-3.125z"/>
<text x="0.0" y="117.5" font-size="5.0" font-weight="bold" font-family="Arbeit Regular, Helvetica, Arial-Unicode, Arial, Sans-serif" fill="#000000">Created by Riyan Resdian</text><text x="0.0" y="122.5" font-size="5.0" font-weight="bold" font-family="Arbeit Regular, Helvetica, Arial-Unicode, Arial, Sans-serif" fill="#000000">from Noun Project</text></svg>